# xmcd
# 
# Track frame offsets:
#     150
#     14488
#     41354
#     58178
#     76530
#     97595
#     115982
#     132221
#     148708
#     167416
#     184859
# 
# Disc length: 2767
# 
# Revision: 2
# Processed by: cddbd v1.5.2PL0 Copyright (c) Steve Scherf et al.
# Submitted via: fre:ac v1.0.17
# 
DISCID=820acd0b
DTITLE=Various Artist - More Than A Game
DYEAR=2009
DGENRE=Hip-Hop
TTITLE0=Ester Dean - Drop It Low Featuring Chris Brown
TTITLE1=Drake - Forever Featuring Kanye West, Lil' Wayne and Eminem
TTITLE2=T.I. - King On Set Featuring Young Dro
TTITLE3=Mary J. Blige - Stronger
TTITLE4=Jay-Z - History
TTITLE5=Rich Boy - Top of the World Featuring Chili Chil
TTITLE6=Soulja Boy - I'm Ballin
TTITLE7=Ya Boy - We Ready
TTITLE8=Wayes - Wayes - Go Hard
TTITLE9=Jared Evan - Frozen
TTITLE10=Tyrese - Tank - If You Dream FeaturingToni Braxton, Jordin Sparks, Omarion, Faith Evans, Jojo, Charlie Wilson, Tamar Braxton and Steve Russel
EXTD=
EXTT0=
EXTT1=
EXTT2=
EXTT3=
EXTT4=
EXTT5=
EXTT6=
EXTT7=
EXTT8=
EXTT9=
EXTT10=
PLAYORDER=
